<svg width="248" height="88" viewBox="0 0 248 88" fill="none" xmlns="http://www.w3.org/2000/svg">
<path d="M45.79 86C44.25 83.5067 42.4167 80.83 40.29 77.97C38.2367 75.0367 35.9633 72.14 33.47 69.28C31.05 66.3467 28.52 63.56 25.88 60.92C23.24 58.2067 20.6 55.8233 17.96 53.77V86H0.800001V9.77H17.96V38.59C22.4333 33.8967 26.9067 29.02 31.38 23.96C35.9267 18.8267 40.1433 14.0967 44.03 9.77H64.38C59.1733 15.93 53.93 21.87 48.65 27.59C43.4433 33.31 37.9433 39.0667 32.15 44.86C38.2367 49.92 44.1033 55.9333 49.75 62.9C55.47 69.8667 60.9333 77.5667 66.14 86H45.79ZM95.9311 74.56C97.5444 74.56 99.0844 74.5233 100.551 74.45C102.018 74.3767 103.191 74.2667 104.071 74.12V61.69C103.411 61.5433 102.421 61.3967 101.101 61.25C99.7811 61.1033 98.5711 61.03 97.4711 61.03C95.9311 61.03 94.4644 61.14 93.0711 61.36C91.7511 61.5067 90.5778 61.8367 89.5511 62.35C88.5244 62.8633 87.7178 63.56 87.1311 64.44C86.5444 65.32 86.2511 66.42 86.2511 67.74C86.2511 70.3067 87.0944 72.1033 88.7811 73.13C90.5411 74.0833 92.9244 74.56 95.9311 74.56ZM94.6111 26.6C99.4511 26.6 103.484 27.15 106.711 28.25C109.938 29.35 112.504 30.9267 114.411 32.98C116.391 35.0333 117.784 37.5267 118.591 40.46C119.398 43.3933 119.801 46.6567 119.801 50.25V84.35C117.454 84.8633 114.191 85.45 110.011 86.11C105.831 86.8433 100.771 87.21 94.8311 87.21C91.0911 87.21 87.6811 86.88 84.6011 86.22C81.5944 85.56 78.9911 84.4967 76.7911 83.03C74.5911 81.49 72.9044 79.51 71.7311 77.09C70.5578 74.67 69.9711 71.7 69.9711 68.18C69.9711 64.8067 70.6311 61.9467 71.9511 59.6C73.3444 57.2533 75.1778 55.3833 77.4511 53.99C79.7244 52.5967 82.3278 51.6067 85.2611 51.02C88.1944 50.36 91.2378 50.03 94.3911 50.03C96.5178 50.03 98.3878 50.14 100.001 50.36C101.688 50.5067 103.044 50.7267 104.071 51.02V49.48C104.071 46.6933 103.228 44.4567 101.541 42.77C99.8544 41.0833 96.9211 40.24 92.7411 40.24C89.9544 40.24 87.2044 40.46 84.4911 40.9C81.7778 41.2667 79.4311 41.8167 77.4511 42.55L75.3611 29.35C76.3144 29.0567 77.4878 28.7633 78.8811 28.47C80.3478 28.1033 81.9244 27.81 83.6111 27.59C85.2978 27.2967 87.0578 27.0767 88.8911 26.93C90.7978 26.71 92.7044 26.6 94.6111 26.6ZM157.722 87.1C152.955 87.0267 149.069 86.5133 146.062 85.56C143.129 84.6067 140.782 83.2867 139.022 81.6C137.335 79.84 136.162 77.75 135.502 75.33C134.915 72.8367 134.622 70.05 134.622 66.97V3.28L151.012 0.639997V63.67C151.012 65.1367 151.122 66.4567 151.342 67.63C151.562 68.8033 151.965 69.7933 152.552 70.6C153.212 71.4067 154.129 72.0667 155.302 72.58C156.475 73.0933 158.052 73.4233 160.032 73.57L157.722 87.1ZM185.817 86H169.427V28.14H185.817V86ZM187.357 11.42C187.357 14.4267 186.367 16.81 184.387 18.57C182.48 20.2567 180.207 21.1 177.567 21.1C174.927 21.1 172.617 20.2567 170.637 18.57C168.73 16.81 167.777 14.4267 167.777 11.42C167.777 8.41333 168.73 6.06666 170.637 4.38C172.617 2.62 174.927 1.74 177.567 1.74C180.207 1.74 182.48 2.62 184.387 4.38C186.367 6.06666 187.357 8.41333 187.357 11.42ZM223.333 74.56C224.947 74.56 226.487 74.5233 227.953 74.45C229.42 74.3767 230.593 74.2667 231.473 74.12V61.69C230.813 61.5433 229.823 61.3967 228.503 61.25C227.183 61.1033 225.973 61.03 224.873 61.03C223.333 61.03 221.867 61.14 220.473 61.36C219.153 61.5067 217.98 61.8367 216.953 62.35C215.927 62.8633 215.12 63.56 214.533 64.44C213.947 65.32 213.653 66.42 213.653 67.74C213.653 70.3067 214.497 72.1033 216.183 73.13C217.943 74.0833 220.327 74.56 223.333 74.56ZM222.013 26.6C226.853 26.6 230.887 27.15 234.113 28.25C237.34 29.35 239.907 30.9267 241.813 32.98C243.793 35.0333 245.187 37.5267 245.993 40.46C246.8 43.3933 247.203 46.6567 247.203 50.25V84.35C244.857 84.8633 241.593 85.45 237.413 86.11C233.233 86.8433 228.173 87.21 222.233 87.21C218.493 87.21 215.083 86.88 212.003 86.22C208.997 85.56 206.393 84.4967 204.193 83.03C201.993 81.49 200.307 79.51 199.133 77.09C197.96 74.67 197.373 71.7 197.373 68.18C197.373 64.8067 198.033 61.9467 199.353 59.6C200.747 57.2533 202.58 55.3833 204.853 53.99C207.127 52.5967 209.73 51.6067 212.663 51.02C215.597 50.36 218.64 50.03 221.793 50.03C223.92 50.03 225.79 50.14 227.403 50.36C229.09 50.5067 230.447 50.7267 231.473 51.02V49.48C231.473 46.6933 230.63 44.4567 228.943 42.77C227.257 41.0833 224.323 40.24 220.143 40.24C217.357 40.24 214.607 40.46 211.893 40.9C209.18 41.2667 206.833 41.8167 204.853 42.55L202.763 29.35C203.717 29.0567 204.89 28.7633 206.283 28.47C207.75 28.1033 209.327 27.81 211.013 27.59C212.7 27.2967 214.46 27.0767 216.293 26.93C218.2 26.71 220.107 26.6 222.013 26.6Z" fill="white"/>
</svg>
